<?xml version="1.0" encoding="UTF-8" standalone="no"?>
<svg
   xmlns:dc="http://purl.org/dc/elements/1.1/"
   xmlns:cc="http://creativecommons.org/ns#"
   xmlns:rdf="http://www.w3.org/1999/02/22-rdf-syntax-ns#"
   xmlns:svg="http://www.w3.org/2000/svg"
   xmlns="http://www.w3.org/2000/svg"
   xmlns:sodipodi="http://sodipodi.sourceforge.net/DTD/sodipodi-0.dtd"
   xmlns:inkscape="http://www.inkscape.org/namespaces/inkscape"
   sodipodi:docname="smallbanner.svg"
   inkscape:version="1.0.2-2 (e86c870879, 2021-01-15)"
   id="svg219"
   version="1.1"
   viewBox="0 0 1280 1280"
   height="338.66666mm"
   width="338.66666mm"
   inkscape:export-filename="D:\Programming\FabricMods\HeadIndex\discord.png"
   inkscape:export-xdpi="96"
   inkscape:export-ydpi="96">
  <defs
     id="defs213">
    <clipPath
       id="clip0">
      <rect
         width="71"
         height="55"
         fill="white"
         id="rect853" />
    </clipPath>
    <clipPath
       id="clip0-0">
      <rect
         width="71"
         height="55"
         fill="white"
         id="rect874" />
    </clipPath>
    <clipPath
       id="clip0-8">
      <rect
         width="71"
         height="55"
         fill="white"
         id="rect895" />
    </clipPath>
  </defs>
  <sodipodi:namedview
     inkscape:window-maximized="1"
     inkscape:window-y="-8"
     inkscape:window-x="-8"
     inkscape:window-height="1017"
     inkscape:window-width="1920"
     inkscape:showpageshadow="false"
     fit-margin-bottom="0"
     fit-margin-right="0"
     fit-margin-left="0"
     fit-margin-top="0"
     showgrid="true"
     inkscape:document-rotation="0"
     inkscape:current-layer="layer1"
     inkscape:document-units="px"
     inkscape:cy="936.67616"
     inkscape:cx="2449.574"
     inkscape:zoom="0.11313708"
     inkscape:pageshadow="2"
     inkscape:pageopacity="0"
     borderopacity="1.0"
     bordercolor="#666666"
     pagecolor="#262626"
     id="base"
     showborder="false"
     inkscape:snap-grids="false">
    <inkscape:grid
       units="px"
       spacingy="50"
       empspacing="8"
       gridanglez="30"
       type="axonomgrid"
       id="grid1973" />
  </sodipodi:namedview>
  <metadata
     id="metadata216">
    <rdf:RDF>
      <cc:Work
         rdf:about="">
        <dc:format>image/svg+xml</dc:format>
        <dc:type
           rdf:resource="http://purl.org/dc/dcmitype/StillImage" />
        <dc:title />
      </cc:Work>
    </rdf:RDF>
  </metadata>
  <g
     inkscape:groupmode="layer"
     id="layer1"
     inkscape:label="background">
    <rect
       style="opacity:1;fill:#00899a;fill-opacity:1;stroke:none;stroke-width:55.2064;stroke-linecap:round;stroke-linejoin:round;stroke-miterlimit:4;stroke-dasharray:none;stroke-dashoffset:0;stroke-opacity:1;paint-order:stroke markers fill"
       id="rect2195"
       width="4406.2334"
       height="1000"
       x="-39.724522"
       y="499.99963"
       inkscape:export-xdpi="96"
       inkscape:export-ydpi="96" />
    <text
       xml:space="preserve"
       style="font-style:normal;font-variant:normal;font-weight:normal;font-stretch:normal;font-size:749.24px;line-height:1.25;font-family:Bungee;-inkscape-font-specification:Bungee;letter-spacing:0px;word-spacing:0px;fill:#00cce6;fill-opacity:1;stroke:none;stroke-width:5.20307"
       x="1045.0593"
       y="1187.4677"
       id="text848"
       transform="scale(0.91774154,1.0896314)"
       inkscape:export-xdpi="96"
       inkscape:export-ydpi="96"><tspan
         id="tspan846"
         x="1045.0593"
         y="1187.4677"
         sodipodi:role="line"
         style="font-style:normal;font-variant:normal;font-weight:normal;font-stretch:normal;font-family:Bungee;-inkscape-font-specification:Bungee;fill:#00cce6;fill-opacity:1;stroke-width:5.20307">Discord</tspan></text>
  </g>
  <g
     inkscape:label="Contents"
     id="layer2"
     inkscape:groupmode="layer">
    <g
       style="fill:none"
       id="g910"
       transform="matrix(12.127536,0,0,12.127536,50.7225,666.8495)">
      <path
         d="M 60.1045,4.8978 C 55.5792,2.8214 50.7265,1.2916 45.6527,0.41542 45.5603,0.39851 45.468,0.440769 45.4204,0.525289 44.7963,1.6353 44.105,3.0834 43.6209,4.2216 38.1637,3.4046 32.7345,3.4046 27.3892,4.2216 26.905,3.0581 26.1886,1.6353 25.5617,0.525289 25.5141,0.443589 25.4218,0.40133 25.3294,0.41542 20.2584,1.2888 15.4057,2.8186 10.8776,4.8978 10.8384,4.9147 10.8048,4.9429 10.7825,4.9795 1.57795,18.7309 -0.943561,32.1443 0.293408,45.3914 c 0.005597,0.0648 0.041978,0.1268 0.092353,0.1662 6.072899,4.4598 11.955539,7.1673 17.728939,8.9619 0.0924,0.0282 0.1903,-0.0056 0.2491,-0.0817 1.3657,-1.865 2.5831,-3.8315 3.6269,-5.8995 0.0616,-0.1211 0.0028,-0.2648 -0.1231,-0.3127 -1.931,-0.7325 -3.7697,-1.6256 -5.5384,-2.6398 -0.1399,-0.0817 -0.1511,-0.2818 -0.0224,-0.3776 0.3722,-0.2789 0.7445,-0.5691 1.0999,-0.8621 0.0643,-0.0535 0.1539,-0.0648 0.2295,-0.031 11.6196,5.3051 24.1992,5.3051 35.6817,0 0.0756,-0.0366 0.1652,-0.0253 0.2323,0.0282 0.3555,0.293 0.7277,0.586 1.1027,0.8649 0.1287,0.0958 0.1203,0.2959 -0.0196,0.3776 -1.7687,1.0339 -3.6074,1.9073 -5.5412,2.637 -0.1259,0.0479 -0.1819,0.1944 -0.1203,0.3155 1.0662,2.0651 2.2836,4.0316 3.6241,5.8967 0.056,0.0789 0.1567,0.1127 0.2491,0.0845 5.8014,-1.7946 11.684,-4.5021 17.7569,-8.9619 0.0532,-0.0394 0.0868,-0.0986 0.0924,-0.1634 C 72.1747,30.0791 68.2147,16.7757 60.1968,4.9823 60.1772,4.9429 60.1437,4.9147 60.1045,4.8978 Z M 23.7259,37.3253 c -3.4983,0 -6.3808,-3.2117 -6.3808,-7.156 0,-3.9443 2.8266,-7.156 6.3808,-7.156 3.5821,0 6.4367,3.2399 6.3807,7.156 0,3.9443 -2.8266,7.156 -6.3807,7.156 z m 23.5919,0 c -3.4982,0 -6.3807,-3.2117 -6.3807,-7.156 0,-3.9443 2.8265,-7.156 6.3807,-7.156 3.5822,0 6.4367,3.2399 6.3808,7.156 0,3.9443 -2.7986,7.156 -6.3808,7.156 z"
         fill="#ffffff"
         id="path891" />
    </g>
  </g>
  <inkscape:templateinfo>
    <inkscape:name>Dark Canvas</inkscape:name>
    <inkscape:date>2020-07-13</inkscape:date>
  </inkscape:templateinfo>
  <inkscape:templateinfo>
    <inkscape:name>dark-workspace</inkscape:name>
    <inkscape:date>2021-05-16</inkscape:date>
  </inkscape:templateinfo>
</svg>
